<?xml version="1.0"?>
<svg xmlns="http://www.w3.org/2000/svg" id="Layer_1" data-name="Layer 1" viewBox="0 0 512 512" width="512" height="512"><title>colour pencil</title><path d="M104.782,120.692,58.131,73.863A15.662,15.662,0,0,1,53.8,65.126L38.54,80.44c-6.435,6.46-6.623,17.187-.409,23.423l46.651,46.829L141.26,94l-4.944-4.962Z" style="fill:white"/><polygon points="407.898 424.945 119.608 135.572 94.664 160.609 387.898 454.945 444.374 398.257 439.43 393.294 407.898 424.945" style="fill:transparent"/><path d="M460.931,396.15a7,7,0,0,0-13.351,4.213L474.6,486.017l-84.517-27.8a7,7,0,0,0-4.375,13.3l97.489,32.07a7,7,0,0,0,8.863-8.756Z" style="fill:white"/><line x1="459.214" y1="393.316" x2="156.099" y2="89.063" style="fill:white"/><path d="M459.214,393.316,156.1,89.062c-.137-.137-.282-.265-.429-.39-.125-.147-.251-.294-.39-.433L104.488,37.257A30.251,30.251,0,0,0,82.952,28.2h0A29.094,29.094,0,0,0,62.21,36.846L28.622,70.56c-11.771,11.815-11.958,31.591-.41,43.184l50.793,50.985c.139.14.286.268.435.394.123.145.247.29.384.427L382.939,469.8a7,7,0,0,0,9.918,0L459.214,403.2A7,7,0,0,0,459.214,393.316ZM38.131,103.863C31.917,97.627,32.1,86.9,38.54,80.44L72.129,46.727A15.186,15.186,0,0,1,82.952,42.2,16.348,16.348,0,0,1,94.57,47.138L141.26,94l-56.478,56.69ZM387.9,454.945,94.664,160.609l56.476-56.688L444.374,398.257Z" style="fill:white"/></svg>
